<svg width="120" height="100" viewBox="0 0 120 100" fill="none" xmlns="http://www.w3.org/2000/svg">
   <g id="arrows">
      <g id="lightGroup">
         <path
            id="light1"
            d="M45.5 47.4019C47.5 48.5566 47.5 51.4434 45.5 52.5981L17 69.0526C15 70.2073 12.5 68.7639 12.5 66.4545L12.5 33.5455C12.5 31.2361 15 29.7927 17 30.9474L45.5 47.4019Z"
            fill="#00A3FF"
            fill-opacity="0.6"
         />
      </g>
      <g id="darkGroup">
         <path
            id="dark1"
            d="M63.5 47.4019C65.5 48.5566 65.5 51.4434 63.5 52.5981L35 69.0526C33 70.2073 30.5 68.7639 30.5 66.4545L30.5 33.5455C30.5 31.2361 33 29.7927 35 30.9474L63.5 47.4019Z"
            fill="#0046CD"
            fill-opacity="0.8"
         />
         <path
            id="dark2"
            d="M45.5 47.4019C47.5 48.5566 47.5 51.4434 45.5 52.5981L17 69.0526C15 70.2073 12.5 68.7639 12.5 66.4545L12.5 33.5455C12.5 31.2361 15 29.7927 17 30.9474L45.5 47.4019Z"
            fill="#0057FF"
            fill-opacity="0.8"
         />
      </g>
   </g>
</svg>
